<?xml version="1.0" encoding="UTF-8"?>
<svg version="1.1" xmlns="http://www.w3.org/2000/svg" width="509" height="122">
<path d="M0 0 C2.97973615 -0.08184423 5.95716832 -0.14089764 8.9375 -0.1875 C9.76830078 -0.21263672 10.59910156 -0.23777344 11.45507812 -0.26367188 C18.2016933 -0.34242614 24.69411327 0.41877322 30.15625 4.68359375 C30.5996875 5.26238281 31.043125 5.84117188 31.5 6.4375 C32.19609375 7.30181641 32.19609375 7.30181641 32.90625 8.18359375 C36.35623639 13.91303544 35.18424131 21.38962425 35.1875 27.8125 C35.19974609 29.07126953 35.21199219 30.33003906 35.22460938 31.62695312 C35.24358273 43.62443602 35.24358273 43.62443602 33 49 C26.47105344 55.52894656 20.98019623 56.31442135 12.16796875 56.3359375 C10.74210197 56.3459227 10.74210197 56.3459227 9.28742981 56.35610962 C7.27944874 56.36621679 5.27143421 56.37092724 3.26342773 56.37060547 C0.20825122 56.37497035 -2.84547024 56.41128779 -5.90039062 56.44921875 C-7.85676593 56.45508915 -9.81314805 56.45905705 -11.76953125 56.4609375 C-12.67500198 56.47530853 -13.58047272 56.48967957 -14.51338196 56.50448608 C-22.09903416 56.45047303 -27.22539018 54.42040431 -32.9375 49.4375 C-37.75126925 43.74849998 -36.49482996 35.06899943 -36 28 C-34.81912551 23.5041405 -32.36305163 21.00361815 -28.4375 18.625 C-24.61403014 16.81754152 -21.79690136 15.87844788 -17.62036133 15.79467773 C-16.73967484 15.77473251 -15.85898834 15.75478729 -14.95161438 15.73423767 C-14.00465195 15.71752518 -13.05768951 15.70081268 -12.08203125 15.68359375 C-11.10965012 15.66281265 -10.13726898 15.64203156 -9.13542175 15.62062073 C-6.02785335 15.55521252 -2.92020015 15.49628071 0.1875 15.4375 C2.29362858 15.39430649 4.39974856 15.35069193 6.50585938 15.30664062 C11.67048591 15.19954001 16.83519778 15.09824781 22 15 C19.12231316 13.49704173 16.95284741 12.70807463 13.70703125 12.4375 C12.91232422 12.36273438 12.11761719 12.28796875 11.29882812 12.2109375 C9.62964074 12.06932537 7.96036818 11.92871399 6.29101562 11.7890625 C4.18696165 11.59014623 2.09173062 11.30211556 0 11 C-1.49297212 8.01405576 -1.11755228 5.29146376 -1 2 C-0.67 1.34 -0.34 0.68 0 0 Z M-24 31 C-24.69593541 34.38108618 -24.59758419 37.60617278 -24 41 C-19.55773654 45.31160865 -12.88101866 45.12623565 -6.97265625 45.1328125 C-5.85052734 45.13410156 -4.72839844 45.13539062 -3.57226562 45.13671875 C-2.41404297 45.13285156 -1.25582031 45.12898438 -0.0625 45.125 C1.09185547 45.12886719 2.24621094 45.13273437 3.43554688 45.13671875 C12.90511232 45.64572175 12.90511232 45.64572175 21.66772461 42.90673828 C23.72751184 39.95879284 23.28478025 37.34701566 23.1875 33.8125 C23.16042969 32.54019531 23.13335937 31.26789063 23.10546875 29.95703125 C23.05326172 28.49330078 23.05326172 28.49330078 23 27 C18.01954576 26.95025668 13.03923879 26.91411902 8.05859375 26.89013672 C6.36716184 26.88013016 4.67574701 26.86652069 2.984375 26.84912109 C0.54162358 26.82463597 -1.90089749 26.81346328 -4.34375 26.8046875 C-5.08991577 26.79436493 -5.83608154 26.78404236 -6.6048584 26.77340698 C-12.90392278 26.77208565 -18.64110707 27.42740471 -24 31 Z " fill="#000000" transform="translate(258,40)"/>
<path d="M0 0 C0.83818268 -0.0066568 1.67636536 -0.0133136 2.53994751 -0.02017212 C4.3065574 -0.03025975 6.07320509 -0.03499035 7.83984375 -0.03466797 C10.52408442 -0.03903811 13.206675 -0.07538903 15.890625 -0.11328125 C17.61457777 -0.1191511 19.33853827 -0.12311937 21.0625 -0.125 C22.25194717 -0.14655655 22.25194717 -0.14655655 23.46542358 -0.16854858 C29.08433338 -0.12310584 33.50675733 1.10311554 38.1640625 4.3359375 C41.60939155 8.66468426 43.28870886 12.1687107 43.296875 17.6796875 C43.29816406 18.51371094 43.29945313 19.34773438 43.30078125 20.20703125 C43.29691406 21.07457031 43.29304688 21.94210938 43.2890625 22.8359375 C43.29292969 23.70347656 43.29679687 24.57101563 43.30078125 25.46484375 C43.29949219 26.29886719 43.29820312 27.13289063 43.296875 27.9921875 C43.29574707 28.75337891 43.29461914 29.51457031 43.29345703 30.29882812 C43.1640625 32.3359375 43.1640625 32.3359375 42.1640625 35.3359375 C24.3440625 35.6659375 6.5240625 35.9959375 -11.8359375 36.3359375 C-11.5059375 37.9859375 -11.1759375 39.6359375 -10.8359375 41.3359375 C-5.18487857 43.49612822 -0.07168267 43.65509192 5.921875 43.796875 C9.70359983 44.42564371 10.9127711 45.28258896 13.1640625 48.3359375 C13.47858522 51.48116472 13.58448071 53.49510109 12.1640625 56.3359375 C8.49767002 56.45321876 4.8317673 56.52354641 1.1640625 56.5859375 C0.13410156 56.61945313 -0.89585937 56.65296875 -1.95703125 56.6875 C-9.53327716 56.78401269 -14.44665413 55.77710311 -20.41601562 51.09716797 C-25.48022436 45.72846568 -24.51246059 37.87437027 -24.37792969 30.98339844 C-24.33590928 28.70941027 -24.33688193 26.43837543 -24.34375 24.1640625 C-24.25544321 11.90846159 -24.25544321 11.90846159 -20.8359375 7.3359375 C-14.33974417 1.12846387 -8.62559196 0.02408683 0 0 Z M-12.8359375 16.3359375 C-12.8359375 18.9759375 -12.8359375 21.6159375 -12.8359375 24.3359375 C1.6840625 24.3359375 16.2040625 24.3359375 31.1640625 24.3359375 C31.1640625 21.3659375 31.1640625 18.3959375 31.1640625 15.3359375 C24.75130952 11.63514265 18.42159194 11.87657869 11.14819336 11.94482422 C9.10267728 11.96092872 7.05912836 11.94491371 5.01367188 11.92578125 C3.71107422 11.92964844 2.40847656 11.93351562 1.06640625 11.9375 C-0.11445557 11.94088379 -1.29531738 11.94426758 -2.51196289 11.94775391 C-6.3865039 12.40023427 -10.00113655 13.50113655 -12.8359375 16.3359375 Z " fill="#000000" transform="translate(462.8359375,39.6640625)"/>
<path d="M0 0 C3.66588745 -1.12316552 6.34382226 -1.22883982 10 0 C13.54653853 3.93321394 15.88655868 8.45984814 18.40087891 13.10009766 C20.27193208 16.49313119 22.22783151 19.83271039 24.19921875 23.16796875 C24.57192398 23.79883896 24.94462921 24.42970917 25.32862854 25.07969666 C26.09049968 26.36922651 26.85244771 27.65871094 27.61447144 28.94815063 C29.43637544 32.03969292 31.24091925 35.14131201 33.046875 38.2421875 C36.31905441 43.85572612 39.63789764 49.43984696 43 55 C47.7948708 48.07113003 52.02431761 40.88408894 56.1875 33.5625 C60.81206583 25.48969754 65.46733281 17.44277536 70.3125 9.5 C70.98671997 8.38927124 70.98671997 8.38927124 71.67456055 7.25610352 C73.30053021 4.608549 74.79475004 2.20524996 77 0 C79.12890625 -0.23046875 79.12890625 -0.23046875 81.5625 -0.1875 C82.77099609 -0.17783203 82.77099609 -0.17783203 84.00390625 -0.16796875 C86 0 86 0 87 1 C87.4286831 6.32704775 86.72619471 9.30221899 83.87890625 13.7890625 C83.19852295 14.88202637 82.51813965 15.97499023 81.81713867 17.10107422 C81.06561735 18.27573208 80.31407049 19.4503736 79.5625 20.625 C78.40149841 22.47774472 77.24643079 24.3340985 76.09181213 26.19082642 C75.29046471 27.47912594 74.48740996 28.76636491 73.682724 30.05258179 C68.81495161 37.85024561 64.21346139 45.80201144 59.59841919 53.75079346 C58.89947777 54.95388047 58.19985143 56.15656988 57.4994812 57.35882568 C56.57940213 58.9384838 55.66202955 60.51971746 54.74487305 62.10107422 C49.55587013 70.72206494 49.55587013 70.72206494 47 72 C41.21448468 72.55988858 41.21448468 72.55988858 39 72 C36.18784592 68.78616049 33.93340822 65.40784231 31.77734375 61.73046875 C31.16511963 60.69172607 30.55289551 59.6529834 29.92211914 58.58276367 C29.26719482 57.46232666 28.61227051 56.34188965 27.9375 55.1875 C26.51958394 52.77003684 25.09967838 50.35374487 23.6796875 47.9375 C23.30830154 47.3046257 22.93691559 46.6717514 22.55427551 46.0196991 C19.65896477 41.09475472 16.71458733 36.20072878 13.7578125 31.3125 C12.45247051 29.145844 11.14805143 26.97863555 9.84402466 24.81118774 C8.99364808 23.40198012 8.14005655 21.99470726 7.28317261 20.58944702 C6.07714458 18.61035053 4.88318133 16.62442104 3.69140625 14.63671875 C3.3317276 14.05337769 2.97204895 13.47003662 2.60147095 12.86901855 C0.46025523 9.26602835 -0.68045359 6.18805753 -1 2 C-0.67 1.34 -0.34 0.68 0 0 Z " fill="#FF0000" transform="translate(1,25)"/>
<path d="M0 0 C0.96550781 0.01353516 1.93101562 0.02707031 2.92578125 0.04101562 C5.28445425 0.07604542 7.64191771 0.12515916 10 0.1875 C11.62651522 3.44053044 11.11453156 6.57975602 11 10.1875 C8.66504532 12.52245468 2.03884436 11.59758043 -1.29882812 11.70507812 C-2.09353516 11.73923828 -2.88824219 11.77339844 -3.70703125 11.80859375 C-4.4338208 11.8336499 -5.16061035 11.85870605 -5.90942383 11.88452148 C-8.26483745 12.22588179 -9.93756101 13.02470661 -12 14.1875 C-11.65555119 16.66016765 -11.65555119 16.66016765 -11 19.1875 C-5.9758472 21.6995764 0.75907486 21.2475823 6.28515625 21.36328125 C7.39310547 21.38712891 8.50105469 21.41097656 9.64257812 21.43554688 C11.92624055 21.47858563 14.2101559 21.50979786 16.49414062 21.52929688 C22.98926378 21.69195867 28.78418762 21.95184589 34 26.1875 C38.25529354 32.25445316 37.7355894 39.06834745 37 46.1875 C34.92858443 51.19342097 32.07999071 53.08569112 27.38864136 55.35165405 C22.92355692 56.91409989 18.43553127 56.69479806 13.75390625 56.61328125 C12.70218735 56.60999313 11.65046844 56.60670502 10.56687927 56.60331726 C8.35905708 56.59294496 6.15126107 56.57307831 3.94360352 56.54418945 C0.54884003 56.49982147 -2.84521581 56.48270485 -6.24023438 56.47070312 C-8.38803115 56.45729046 -10.53581916 56.44237066 -12.68359375 56.42578125 C-13.70327744 56.41839432 -14.72296112 56.41100739 -15.77354431 56.40339661 C-16.70864334 56.39056137 -17.64374237 56.37772614 -18.60717773 56.36450195 C-19.43354233 56.35465775 -20.25990692 56.34481354 -21.11131287 56.33467102 C-23 56.1875 -23 56.1875 -24 55.1875 C-24.23880597 47.66511194 -24.23880597 47.66511194 -23 45.1875 C-21.3439978 45.157771 -21.3439978 45.157771 -19.65454102 45.12744141 C-15.52248975 45.05083927 -11.39076582 44.96221025 -7.2590332 44.87011719 C-5.47752387 44.83205144 -3.69594352 44.7971613 -1.91430664 44.765625 C0.6602501 44.71948341 3.23432729 44.6615754 5.80859375 44.6015625 C6.59334579 44.59001129 7.37809784 44.57846008 8.18663025 44.56655884 C13.65484431 44.42361651 18.70514344 43.54834299 24 42.1875 C24.04254356 40.18795254 24.04080783 38.18708364 24 36.1875 C19.4674207 31.6549207 4.81827978 33.84673406 -1.04101562 33.7578125 C-15.98264585 33.35959026 -15.98264585 33.35959026 -21.4375 27.625 C-25.11955131 21.88099995 -24.65315164 15.86331736 -24 9.1875 C-22.36785269 4.98510201 -19.53691011 3.43797815 -15.5 1.5546875 C-10.36295737 -0.29349531 -5.39840584 -0.1451985 0 0 Z " fill="#000000" transform="translate(137,39.8125)"/>
<path d="M0 0 C1.37478516 0.01740234 1.37478516 0.01740234 2.77734375 0.03515625 C3.69644531 0.04417969 4.61554688 0.05320312 5.5625 0.0625 C6.27277344 0.07410156 6.98304688 0.08570312 7.71484375 0.09765625 C8.97151204 2.61099283 8.83941641 4.32987965 8.84082031 7.14233398 C8.84653046 8.71923256 8.84653046 8.71923256 8.85235596 10.32798767 C8.85338318 11.46756424 8.8544104 12.60714081 8.85546875 13.78125 C8.87379078 16.17644185 8.89336052 18.57162442 8.9140625 20.96679688 C8.94309548 24.75707681 8.96484524 28.54675964 8.96533203 32.3371582 C8.96865345 35.98573268 9.00312393 39.63291576 9.04296875 43.28125 C9.03589905 44.41880234 9.02882935 45.55635468 9.02154541 46.7283783 C9.03796082 47.78279617 9.05437622 48.83721405 9.07128906 49.92358398 C9.07493469 50.85242905 9.07858032 51.78127411 9.08233643 52.73826599 C9.51831348 55.33126495 9.51831348 55.33126495 12.08911133 56.89015198 C15.00022924 58.22889742 17.13077857 58.57866292 20.32421875 58.75390625 C22.03834961 58.85058594 22.03834961 58.85058594 23.78710938 58.94921875 C32.37142763 59.27363853 40.95688449 59.47601923 49.54541016 59.64990234 C52.02387181 59.70135013 54.50214899 59.75858111 56.98046875 59.81640625 C57.74385559 59.82998169 58.50724243 59.84355713 59.29376221 59.85754395 C64.60172724 59.98453974 64.60172724 59.98453974 65.71484375 61.09765625 C65.81274945 62.59503749 65.84459239 64.09708517 65.83984375 65.59765625 C65.84371094 66.8196875 65.84371094 66.8196875 65.84765625 68.06640625 C65.71484375 70.09765625 65.71484375 70.09765625 64.71484375 71.09765625 C63.13631072 71.20665945 61.5529491 71.24671003 59.97070312 71.25878906 C58.95874878 71.26839661 57.94679443 71.27800415 56.9041748 71.28790283 C55.24811218 71.29427765 55.24811218 71.29427765 53.55859375 71.30078125 C52.42715942 71.30648132 51.2957251 71.3121814 50.13000488 71.3180542 C47.72567688 71.32752592 45.32133577 71.33404675 42.91699219 71.33789062 C39.25822756 71.34754181 35.60003756 71.37852258 31.94140625 71.41015625 C29.60547209 71.41669151 27.2695339 71.42193992 24.93359375 71.42578125 C23.84574585 71.43812805 22.75789795 71.45047485 21.63708496 71.4631958 C14.48223869 71.44249296 7.31221068 71.02377536 1.55859375 66.34375 C0.8934375 65.44849609 0.8934375 65.44849609 0.21484375 64.53515625 C-0.24921875 63.93574219 -0.71328125 63.33632812 -1.19140625 62.71875 C-3.35633835 59.51001135 -3.4115538 57.41552276 -3.41455078 53.56225586 C-3.41770294 52.404431 -3.4208551 51.24660614 -3.42410278 50.05369568 C-3.42207855 48.7984761 -3.42005432 47.54325653 -3.41796875 46.25 C-3.41892548 44.96783096 -3.4198822 43.68566193 -3.42086792 42.36463928 C-3.42234296 39.6502258 -3.42019619 36.93584521 -3.41552734 34.22143555 C-3.40982447 30.73524584 -3.41311379 27.24913302 -3.41909981 23.76294613 C-3.4235728 20.44612451 -3.42044554 17.12932381 -3.41796875 13.8125 C-3.41999298 12.5552562 -3.42201721 11.29801239 -3.42410278 10.00267029 C-3.42095062 8.84799759 -3.41779846 7.69332489 -3.41455078 6.50366211 C-3.41375519 5.48155136 -3.41295959 4.45944061 -3.41213989 3.40635681 C-3.24157929 0.30537983 -3.10408418 0.13265317 0 0 Z " fill="#000000" transform="translate(302.28515625,24.90234375)"/>
<path d="M0 0 C1.45792884 -0.05399736 2.91642712 -0.09279177 4.375 -0.125 C5.18710937 -0.14820312 5.99921875 -0.17140625 6.8359375 -0.1953125 C9 0 9 0 11 2 C11.1953125 5.0390625 11.1953125 5.0390625 11.125 8.625 C11.10695313 9.81351563 11.08890625 11.00203125 11.0703125 12.2265625 C11.04710937 13.14179687 11.02390625 14.05703125 11 15 C11.85549438 14.99214478 11.85549438 14.99214478 12.72827148 14.98413086 C15.29800323 14.96341779 17.86771747 14.9503581 20.4375 14.9375 C21.78424805 14.92493164 21.78424805 14.92493164 23.15820312 14.91210938 C24.01220703 14.90888672 24.86621094 14.90566406 25.74609375 14.90234375 C26.53685303 14.89710693 27.3276123 14.89187012 28.14233398 14.88647461 C30 15 30 15 31 16 C31.0979057 17.49738124 31.12974864 18.99942892 31.125 20.5 C31.12886719 21.72203125 31.12886719 21.72203125 31.1328125 22.96875 C31 25 31 25 30 26 C28.58429877 26.08651611 27.164405 26.10704904 25.74609375 26.09765625 C24.89208984 26.09443359 24.03808594 26.09121094 23.15820312 26.08789062 C21.81145508 26.07532227 21.81145508 26.07532227 20.4375 26.0625 C19.53580078 26.05798828 18.63410156 26.05347656 17.70507812 26.04882812 C15.46998686 26.03700225 13.23502563 26.0205222 11 26 C11.00785522 27.93818604 11.00785522 27.93818604 11.01586914 29.91552734 C11.03393367 34.69758413 11.04543736 39.47963789 11.05493164 44.26171875 C11.05996852 46.33366401 11.06679825 48.4056057 11.07543945 50.47753906 C11.08753321 53.45118082 11.09323467 56.42477569 11.09765625 59.3984375 C11.10281754 60.32868744 11.10797882 61.25893738 11.11329651 62.21737671 C11.11340981 63.50848862 11.11340981 63.50848862 11.11352539 64.82568359 C11.115746 65.58513275 11.11796661 66.34458191 11.12025452 67.12704468 C11 69 11 69 10 71 C6.7 71 3.4 71 0 71 C-0.91861784 68.24414648 -1.12204322 66.6403931 -1.11352539 63.80395508 C-1.11344986 62.96331009 -1.11337433 62.1226651 -1.11329651 61.25654602 C-1.10813522 60.35333115 -1.10297394 59.45011627 -1.09765625 58.51953125 C-1.0962413 57.59154221 -1.09482635 56.66355316 -1.09336853 55.70744324 C-1.08776937 52.74242942 -1.07521704 49.77749101 -1.0625 46.8125 C-1.05748489 44.80273547 -1.052922 42.79296975 -1.04882812 40.78320312 C-1.03780021 35.85543968 -1.02053617 30.92773263 -1 26 C-1.969375 26.020625 -2.93875 26.04125 -3.9375 26.0625 C-7 26 -7 26 -8 25 C-8.0979057 23.50261876 -8.12974864 22.00057108 -8.125 20.5 C-8.12757813 19.6853125 -8.13015625 18.870625 -8.1328125 18.03125 C-8 16 -8 16 -7 15 C-5.00041636 14.95919217 -2.99954746 14.95745644 -1 15 C-1.01160156 14.16855469 -1.02320313 13.33710937 -1.03515625 12.48046875 C-1.04869141 10.85044922 -1.04869141 10.85044922 -1.0625 9.1875 C-1.07410156 8.10855469 -1.08570313 7.02960937 -1.09765625 5.91796875 C-1 3 -1 3 0 0 Z " fill="#000000" transform="translate(403,25)"/>
<path d="M0 0 C1.45792884 -0.05399736 2.91642712 -0.09279177 4.375 -0.125 C5.18710938 -0.14820312 5.99921875 -0.17140625 6.8359375 -0.1953125 C9 0 9 0 11 2 C11.1953125 5.0390625 11.1953125 5.0390625 11.125 8.625 C11.10695312 9.81351563 11.08890625 11.00203125 11.0703125 12.2265625 C11.04710937 13.14179687 11.02390625 14.05703125 11 15 C11.85549438 14.99214478 11.85549438 14.99214478 12.72827148 14.98413086 C15.29800323 14.96341779 17.86771747 14.9503581 20.4375 14.9375 C21.78424805 14.92493164 21.78424805 14.92493164 23.15820312 14.91210938 C24.01220703 14.90888672 24.86621094 14.90566406 25.74609375 14.90234375 C26.53685303 14.89710693 27.3276123 14.89187012 28.14233398 14.88647461 C30 15 30 15 31 16 C31.0979057 17.49738124 31.12974864 18.99942892 31.125 20.5 C31.12886719 21.72203125 31.12886719 21.72203125 31.1328125 22.96875 C31 25 31 25 30 26 C28.58429877 26.08651611 27.164405 26.10704904 25.74609375 26.09765625 C24.89208984 26.09443359 24.03808594 26.09121094 23.15820312 26.08789062 C21.81145508 26.07532227 21.81145508 26.07532227 20.4375 26.0625 C19.53580078 26.05798828 18.63410156 26.05347656 17.70507812 26.04882812 C15.46998686 26.03700225 13.23502563 26.0205222 11 26 C11.00785522 27.93818604 11.00785522 27.93818604 11.01586914 29.91552734 C11.03393367 34.69758413 11.04543736 39.47963789 11.05493164 44.26171875 C11.05996852 46.33366401 11.06679825 48.4056057 11.07543945 50.47753906 C11.08753321 53.45118082 11.09323467 56.42477569 11.09765625 59.3984375 C11.10281754 60.32868744 11.10797882 61.25893738 11.11329651 62.21737671 C11.11340981 63.50848862 11.11340981 63.50848862 11.11352539 64.82568359 C11.115746 65.58513275 11.11796661 66.34458191 11.12025452 67.12704468 C11 69 11 69 10 71 C6.7 71 3.4 71 0 71 C-0.91861784 68.24414648 -1.12204322 66.6403931 -1.11352539 63.80395508 C-1.11344986 62.96331009 -1.11337433 62.1226651 -1.11329651 61.25654602 C-1.10813522 60.35333115 -1.10297394 59.45011627 -1.09765625 58.51953125 C-1.0962413 57.59154221 -1.09482635 56.66355316 -1.09336853 55.70744324 C-1.08776937 52.74242942 -1.07521704 49.77749101 -1.0625 46.8125 C-1.05748489 44.80273547 -1.052922 42.79296975 -1.04882812 40.78320312 C-1.03780021 35.85543968 -1.02053617 30.92773263 -1 26 C-1.969375 26.020625 -2.93875 26.04125 -3.9375 26.0625 C-7 26 -7 26 -8 25 C-8.0979057 23.50261876 -8.12974864 22.00057108 -8.125 20.5 C-8.12757813 19.6853125 -8.13015625 18.870625 -8.1328125 18.03125 C-8 16 -8 16 -7 15 C-5.00041636 14.95919217 -2.99954746 14.95745644 -1 15 C-1.01160156 14.16855469 -1.02320313 13.33710937 -1.03515625 12.48046875 C-1.04869141 10.85044922 -1.04869141 10.85044922 -1.0625 9.1875 C-1.07410156 8.10855469 -1.08570313 7.02960937 -1.09765625 5.91796875 C-1 3 -1 3 0 0 Z " fill="#000000" transform="translate(186,25)"/>
<path d="M0 0 C3.3 0 6.6 0 10 0 C11.24737486 2.49474971 11.12696326 4.17777604 11.12939453 6.96875 C11.13254669 8.00322266 11.13569885 9.03769531 11.13894653 10.10351562 C11.1369223 11.22435547 11.13489807 12.34519531 11.1328125 13.5 C11.13376923 14.64662109 11.13472595 15.79324219 11.13571167 16.97460938 C11.13639311 19.40234431 11.13454135 21.83008105 11.13037109 24.2578125 C11.12502237 27.98441643 11.13031735 31.71089984 11.13671875 35.4375 C11.13605796 37.79166693 11.13477679 40.14583379 11.1328125 42.5 C11.13483673 43.62083984 11.13686096 44.74167969 11.13894653 45.89648438 C11.13579437 46.93095703 11.13264221 47.96542969 11.12939453 49.03125 C11.12859894 49.94455078 11.12780334 50.85785156 11.12698364 51.79882812 C11 54 11 54 10 56 C6.7 56 3.4 56 0 56 C-1.24737486 53.50525029 -1.12696326 51.82222396 -1.12939453 49.03125 C-1.13254669 47.99677734 -1.13569885 46.96230469 -1.13894653 45.89648438 C-1.1369223 44.77564453 -1.13489807 43.65480469 -1.1328125 42.5 C-1.13376923 41.35337891 -1.13472595 40.20675781 -1.13571167 39.02539062 C-1.13639311 36.59765569 -1.13454135 34.16991895 -1.13037109 31.7421875 C-1.12502237 28.01558357 -1.13031735 24.28910016 -1.13671875 20.5625 C-1.13605796 18.20833307 -1.13477679 15.85416621 -1.1328125 13.5 C-1.13483673 12.37916016 -1.13686096 11.25832031 -1.13894653 10.10351562 C-1.13579437 9.06904297 -1.13264221 8.03457031 -1.12939453 6.96875 C-1.12859894 6.05544922 -1.12780334 5.14214844 -1.12698364 4.20117188 C-1 2 -1 2 0 0 Z " fill="#000000" transform="translate(378,40)"/>
<path d="M0 0 C3.3 0 6.6 0 10 0 C11.24737486 2.49474971 11.12696326 4.17777604 11.12939453 6.96875 C11.13254669 8.00322266 11.13569885 9.03769531 11.13894653 10.10351562 C11.1369223 11.22435547 11.13489807 12.34519531 11.1328125 13.5 C11.13376923 14.64662109 11.13472595 15.79324219 11.13571167 16.97460938 C11.13639311 19.40234431 11.13454135 21.83008105 11.13037109 24.2578125 C11.12502237 27.98441643 11.13031735 31.71089984 11.13671875 35.4375 C11.13605796 37.79166693 11.13477679 40.14583379 11.1328125 42.5 C11.13483673 43.62083984 11.13686096 44.74167969 11.13894653 45.89648438 C11.13579437 46.93095703 11.13264221 47.96542969 11.12939453 49.03125 C11.12859894 49.94455078 11.12780334 50.85785156 11.12698364 51.79882812 C11 54 11 54 10 56 C6.7 56 3.4 56 0 56 C-1.24737486 53.50525029 -1.12696326 51.82222396 -1.12939453 49.03125 C-1.13254669 47.99677734 -1.13569885 46.96230469 -1.13894653 45.89648438 C-1.1369223 44.77564453 -1.13489807 43.65480469 -1.1328125 42.5 C-1.13376923 41.35337891 -1.13472595 40.20675781 -1.13571167 39.02539062 C-1.13639311 36.59765569 -1.13454135 34.16991895 -1.13037109 31.7421875 C-1.12502237 28.01558357 -1.13031735 24.28910016 -1.13671875 20.5625 C-1.13605796 18.20833307 -1.13477679 15.85416621 -1.1328125 13.5 C-1.13483673 12.37916016 -1.13686096 11.25832031 -1.13894653 10.10351562 C-1.13579437 9.06904297 -1.13264221 8.03457031 -1.12939453 6.96875 C-1.12859894 6.05544922 -1.12780334 5.14214844 -1.12698364 4.20117188 C-1 2 -1 2 0 0 Z " fill="#000000" transform="translate(95,40)"/>
<path d="M0 0 C2 1.0625 2 1.0625 3 3 C3.36248449 6.38318857 3.58433618 8.86784865 2 11.9375 C-1.24370507 13.66071832 -4.4161041 13.52265149 -8 13 C-10 12 -10 12 -11 10 C-11.40850143 7.14632572 -11.27952114 4.93497202 -11 2 C-7.18410122 -0.54393252 -4.4700353 -0.57737956 0 0 Z " fill="#000000" transform="translate(387,26)"/>
<path d="M0 0 C2 1.0625 2 1.0625 3 3 C3.36248449 6.38318857 3.58433618 8.86784865 2 11.9375 C-1.24370507 13.66071832 -4.4161041 13.52265149 -8 13 C-10 12 -10 12 -11 10 C-11.40850143 7.14632572 -11.27952114 4.93497202 -11 2 C-7.18410122 -0.54393252 -4.4700353 -0.57737956 0 0 Z " fill="#000000" transform="translate(104,26)"/>
</svg>
