<?xml version="1.0" encoding="UTF-8"?>
<svg version="1.1" xmlns="http://www.w3.org/2000/svg" width="92" height="122">
<path d="M0 0 C3.55500668 3.7721622 6.1899625 7.73033016 8.78515625 12.2265625 C9.29248291 13.09930061 9.29248291 13.09930061 9.81005859 13.9896698 C10.89919378 15.86527285 11.98076978 17.7451185 13.0625 19.625 C14.19264973 21.57447528 15.32490156 23.5227185 16.4573822 25.47084045 C17.21421508 26.77285154 17.97045217 28.07520912 18.72608948 29.37791443 C22.11835036 35.22150259 25.57611705 41.02457842 29.0625 46.8125 C29.5685376 47.65312988 30.0745752 48.49375977 30.59594727 49.35986328 C31.7293149 51.24070285 32.86442026 53.12049519 34 55 C36.50565482 51.81194388 38.55284343 48.47269753 40.58984375 44.96875 C40.93075546 44.38418533 41.27166718 43.79962067 41.62290955 43.19734192 C42.35219579 41.9465602 43.08046434 40.69518465 43.80780029 39.44326782 C45.71034651 36.1705779 47.62362122 32.90416356 49.53515625 29.63671875 C50.29837453 28.33123772 51.06155862 27.02573671 51.82470703 25.72021484 C52.54980035 24.4801407 53.27489782 23.24006897 54 22 C54.63405762 20.91541504 55.26811523 19.83083008 55.92138672 18.71337891 C57.56536053 15.90873863 59.21837432 13.10968004 60.875 10.3125 C61.35573975 9.48878906 61.83647949 8.66507813 62.33178711 7.81640625 C62.77659424 7.06875 63.22140137 6.32109375 63.6796875 5.55078125 C64.05851074 4.90794189 64.43733398 4.26510254 64.82763672 3.6027832 C66 2 66 2 69 0 C75.04109589 -0.53938356 75.04109589 -0.53938356 78 1.125 C79.52355879 3.98167272 78.72613151 5.89607966 78 9 C76.62744141 11.83544922 76.62744141 11.83544922 74.8515625 14.8046875 C74.18479492 15.93076416 73.51802734 17.05684082 72.83105469 18.21704102 C72.09606196 19.43657701 71.36070073 20.65589098 70.625 21.875 C69.86804127 23.14268604 69.11187102 24.41084318 68.35644531 25.67944336 C67.16364653 27.68120798 65.96961898 29.68218242 64.77160645 31.68083191 C61.74805755 36.72670804 58.77666452 41.80124475 55.8203125 46.88671875 C54.54573972 49.06925893 53.26990014 51.25105157 51.99334717 53.43243408 C51.16871774 54.84516504 50.34710816 56.25966334 49.52862549 57.67596436 C48.3772445 59.66582612 47.21355911 61.64798879 46.046875 63.62890625 C45.38526367 64.76400635 44.72365234 65.89910645 44.04199219 67.06860352 C41.27805308 71.03639607 38.82848286 73.65715946 34 74.5625 C29.95347251 73.8037761 28.72573684 72.04139256 26 69 C24.70527181 67.05941282 23.48096982 65.07050399 22.3203125 63.046875 C21.99047867 62.47762299 21.66064484 61.90837097 21.32081604 61.3218689 C20.2485777 59.46850105 19.18695407 57.60927601 18.125 55.75 C16.99876633 53.79865244 15.86958188 51.84903384 14.74009705 49.89956665 C13.97075952 48.57157842 13.2022608 47.2431039 12.43458557 45.91415405 C7.99129308 38.230749 3.40770434 30.63374404 -1.17724609 23.03417969 C-2.78952726 20.35890052 -4.39618124 17.68035831 -6 15 C-6.42466553 14.29818604 -6.84933105 13.59637207 -7.28686523 12.87329102 C-9.56106902 9.03767856 -10.73518515 6.51613733 -10 2 C-6.23500419 -0.5099972 -4.45706394 -0.61476744 0 0 Z " fill="#F90000" transform="translate(11,24)"/>
<path d="M0 0 C3.55500668 3.7721622 6.1899625 7.73033016 8.78515625 12.2265625 C9.29248291 13.09930061 9.29248291 13.09930061 9.81005859 13.9896698 C10.89919378 15.86527285 11.98076978 17.7451185 13.0625 19.625 C14.19264973 21.57447528 15.32490156 23.5227185 16.4573822 25.47084045 C17.21421508 26.77285154 17.97045217 28.07520912 18.72608948 29.37791443 C22.11835036 35.22150259 25.57611705 41.02457842 29.0625 46.8125 C29.5685376 47.65312988 30.0745752 48.49375977 30.59594727 49.35986328 C31.7293149 51.24070285 32.86442026 53.12049519 34 55 C36.50565482 51.81194388 38.55284343 48.47269753 40.58984375 44.96875 C40.93075546 44.38418533 41.27166718 43.79962067 41.62290955 43.19734192 C42.35219579 41.9465602 43.08046434 40.69518465 43.80780029 39.44326782 C45.71034651 36.1705779 47.62362122 32.90416356 49.53515625 29.63671875 C50.29837453 28.33123772 51.06155862 27.02573671 51.82470703 25.72021484 C52.54980035 24.4801407 53.27489782 23.24006897 54 22 C54.63405762 20.91541504 55.26811523 19.83083008 55.92138672 18.71337891 C57.56536053 15.90873863 59.21837432 13.10968004 60.875 10.3125 C61.35573975 9.48878906 61.83647949 8.66507813 62.33178711 7.81640625 C62.77659424 7.06875 63.22140137 6.32109375 63.6796875 5.55078125 C64.05851074 4.90794189 64.43733398 4.26510254 64.82763672 3.6027832 C66 2 66 2 69 0 C75.04109589 -0.53938356 75.04109589 -0.53938356 78 1.125 C79.52355879 3.98167272 78.72613151 5.89607966 78 9 C76.62744141 11.83544922 76.62744141 11.83544922 74.8515625 14.8046875 C74.18479492 15.93076416 73.51802734 17.05684082 72.83105469 18.21704102 C72.09606196 19.43657701 71.36070073 20.65589098 70.625 21.875 C69.86804127 23.14268604 69.11187102 24.41084318 68.35644531 25.67944336 C67.16364653 27.68120798 65.96961898 29.68218242 64.77160645 31.68083191 C61.74805755 36.72670804 58.77666452 41.80124475 55.8203125 46.88671875 C54.54573972 49.06925893 53.26990014 51.25105157 51.99334717 53.43243408 C51.16871774 54.84516504 50.34710816 56.25966334 49.52862549 57.67596436 C48.3772445 59.66582612 47.21355911 61.64798879 46.046875 63.62890625 C45.38526367 64.76400635 44.72365234 65.89910645 44.04199219 67.06860352 C41.27805308 71.03639607 38.82848286 73.65715946 34 74.5625 C29.95347251 73.8037761 28.72573684 72.04139256 26 69 C24.70527181 67.05941282 23.48096982 65.07050399 22.3203125 63.046875 C21.99047867 62.47762299 21.66064484 61.90837097 21.32081604 61.3218689 C20.2485777 59.46850105 19.18695407 57.60927601 18.125 55.75 C16.99876633 53.79865244 15.86958188 51.84903384 14.74009705 49.89956665 C13.97075952 48.57157842 13.2022608 47.2431039 12.43458557 45.91415405 C7.99129308 38.230749 3.40770434 30.63374404 -1.17724609 23.03417969 C-2.78952726 20.35890052 -4.39618124 17.68035831 -6 15 C-6.42466553 14.29818604 -6.84933105 13.59637207 -7.28686523 12.87329102 C-9.56106902 9.03767856 -10.73518515 6.51613733 -10 2 C-6.23500419 -0.5099972 -4.45706394 -0.61476744 0 0 Z M-8 2 C-8.87267276 4.16945566 -8.87267276 4.16945566 -9 7 C-7.82007145 9.45997792 -6.63556905 11.55382352 -5.15234375 13.81640625 C-4.31023027 15.15720966 -3.46894798 16.4985354 -2.62841797 17.84033203 C-2.19148621 18.52798645 -1.75455444 19.21564087 -1.30438232 19.9241333 C0.76023786 23.20988488 2.71928723 26.55601016 4.68359375 29.90234375 C5.46899278 31.23124654 6.25488505 32.55985793 7.04125977 33.88818359 C7.43354767 34.55130554 7.82583557 35.21442749 8.23001099 35.89764404 C16.53929382 49.95096308 16.53929382 49.95096308 25.0625 63.875 C25.44913818 64.49753662 25.83577637 65.12007324 26.23413086 65.76147461 C29.1643146 70.59821272 29.1643146 70.59821272 34.1875 72.75 C38.53899817 71.89396757 38.89845325 71.4406104 41.375 68 C44.54736284 62.97767834 47.44002483 57.78209506 50.31640625 52.58544922 C53.39197661 47.03020025 56.60213151 41.56612416 59.875 36.125 C60.37507568 35.29105713 60.87515137 34.45711426 61.39038086 33.59790039 C63.95438319 29.33798369 66.5538792 25.1049 69.2109375 20.90234375 C69.72156738 20.08813965 70.23219727 19.27393555 70.75830078 18.43505859 C71.72877954 16.89150497 72.7084749 15.35369503 73.69873047 13.82275391 C76.89051254 8.82477577 76.89051254 8.82477577 77 3 C75.79081184 1.59860341 75.79081184 1.59860341 72.30859375 1.36328125 C69.50452995 1.41628223 68.40585391 1.59464119 66.39892578 3.59912109 C64.79652842 6.06388362 63.41877493 8.57893346 62.0625 11.1875 C60.95161698 13.19071243 59.83957441 15.19328213 58.7265625 17.1953125 C57.83952637 18.82581543 57.83952637 18.82581543 56.93457031 20.48925781 C53.77070777 26.27253471 50.41080364 31.94403041 47.07150269 37.62710571 C45.95352552 39.53514936 44.84416025 41.44797133 43.73657227 43.36206055 C43.04198201 44.55526461 42.3472459 45.7483838 41.65234375 46.94140625 C41.04382568 47.99013916 40.43530762 49.03887207 39.80834961 50.11938477 C38.04502117 52.92828341 36.12424191 55.45658841 34 58 C29.67838406 50.83332024 25.38203918 43.65217166 21.12109375 36.44921875 C20.77869659 35.87046494 20.43629944 35.29171112 20.08352661 34.69541931 C18.36661958 31.79290033 16.6511061 28.88957772 14.9375 25.98510742 C8.34601726 13.35408873 8.34601726 13.35408873 0 2 C-2.67058851 1.85884839 -5.32432238 1.95752893 -8 2 Z " fill="#1D0000" transform="translate(11,24)"/>
</svg>
